<?xml version="1.0" encoding="UTF-8"?>
<svg version="1.1" xmlns="http://www.w3.org/2000/svg" width="950" height="950">
<path d="M0 0 C17.39829899 14.4794397 17.39829899 14.4794397 19.50195312 26.40014648 C18.67977457 30.51103927 17.01010986 32.40332224 13.93945312 35.21264648 C9.87159786 36.59418223 7.02496642 36.54265612 3.12695312 34.90014648 C-0.5346489 32.8855585 -3.12420644 30.22439567 -5.99804688 27.21264648 C-12.29739358 20.68248402 -18.42052661 17.69455291 -27.50976562 17.11499023 C-34.91110109 17.39834917 -41.02190222 19.81409864 -46.06054688 25.21264648 C-49.8550109 31.33747267 -51.63590836 36.96309181 -51.06054688 44.21264648 C-47.87036785 56.74274722 -39.84122719 68.02552627 -29.06054688 75.21264648 C-29.5894152 79.29600192 -31.65683725 81.15617667 -34.53320312 83.97827148 C-35.43232422 84.86772461 -36.33144531 85.75717773 -37.2578125 86.67358398 C-38.20333984 87.59397461 -39.14886719 88.51436523 -40.12304688 89.46264648 C-41.08271661 90.40726321 -42.04170916 91.35256843 -43 92.29858398 C-45.34693516 94.61013821 -47.70058078 96.91440989 -50.06054688 99.21264648 C-54.78748894 96.93004071 -58.20996225 93.74703347 -62.06054688 90.21264648 C-62.72570312 89.63643555 -63.39085937 89.06022461 -64.07617188 88.46655273 C-73.17912224 80.1341277 -79.65613804 68.6056978 -80.39648438 56.16967773 C-80.6811415 43.0691937 -78.52395356 31.64333414 -70.06054688 21.21264648 C-69.55910156 20.58745117 -69.05765625 19.96225586 -68.54101562 19.31811523 C-62.44867926 12.51426513 -53.32607077 7.67386067 -44.16064453 7.09204102 C-27.31895491 6.44236159 -16.15844613 9.22731162 -3.06054688 20.21264648 C-5.70574188 13.32002408 -14.28987645 9.91971167 -20.62304688 6.90014648 C-34.47448233 1.1879616 -49.35121873 1.95620014 -63.12695312 7.43139648 C-77.33369493 13.9632318 -85.91955022 24.36178546 -91.93554688 38.58764648 C-96.8088112 52.25537789 -95.45119412 65.25105269 -89.44335938 78.33447266 C-83.35780525 90.80779472 -74.6792557 101.4668406 -63.06054688 109.21264648 C-63.52006717 113.54370557 -66.33752958 115.95721576 -69.26757812 118.88842773 C-69.78938156 119.4178447 -70.311185 119.94726166 -70.84880066 120.49272156 C-71.95204299 121.60675042 -73.05926722 122.71684813 -74.17016602 123.82324219 C-75.87070581 125.52280676 -77.54879032 127.24259146 -79.2265625 128.96459961 C-80.30143168 130.04467363 -81.37756202 131.12349435 -82.45507812 132.20092773 C-82.95626663 132.71851151 -83.45745514 133.23609528 -83.97383118 133.7693634 C-85.41918945 135.18652344 -85.41918945 135.18652344 -88.06054688 137.21264648 C-93.78667839 137.01202937 -98.17194179 130.91253985 -102.06054688 127.21264648 C-102.85460937 126.47143555 -103.64867187 125.73022461 -104.46679688 124.96655273 C-118.04288195 111.92514224 -127.71795643 94.73059401 -128.49414062 75.66186523 C-128.51784558 73.40808327 -128.5186458 71.15395898 -128.49804688 68.90014648 C-128.48902344 67.71316162 -128.48 66.52617676 -128.47070312 65.30322266 C-128.05458436 44.19241963 -120.16266406 26.75625342 -105.06054688 12.21264648 C-104.41601562 11.5487793 -103.77148438 10.88491211 -103.10742188 10.20092773 C-88.06076939 -4.35507304 -67.11363435 -8.32631854 -47.01367188 -8.06079102 C-31.02053823 -7.54864565 -16.27191779 -1.57433704 -3.97070312 8.63452148 C-1.45624536 10.71190581 1.19592706 12.45397593 3.93945312 14.21264648 C3.74474202 12.26265519 3.74474202 12.26265519 2.93945312 10.21264648 C1.61508603 9.52834099 0.27970573 8.86529123 -1.06054688 8.21264648 C-2.63566898 7.02081342 -4.19667518 5.81023454 -5.74804688 4.58764648 C-25.1591272 -9.62819131 -47.65853322 -14.48274447 -71.37695312 -11.27954102 C-94.41020186 -7.10041142 -113.37008212 3.83789977 -126.96679688 22.92749023 C-140.20134512 43.69289149 -147.07399496 68.14904085 -142.03540039 92.72973633 C-136.26156697 116.08036547 -120.31448844 134.34716114 -102.06054688 149.21264648 C-103.6474618 153.05962719 -106.23893627 155.74611173 -109.11132812 158.66967773 C-109.85505928 159.43050911 -109.85505928 159.43050911 -110.61381531 160.20671082 C-111.66086054 161.27258894 -112.71079699 162.3356337 -113.76342773 163.39599609 C-115.37145414 165.02353443 -116.95692245 166.67114025 -118.54296875 168.32006836 C-119.56442994 169.35458171 -120.58717424 170.38783005 -121.61132812 171.41967773 C-122.31785271 172.16324272 -122.31785271 172.16324272 -123.03865051 172.92182922 C-124.41333008 174.27832031 -124.41333008 174.27832031 -127.06054688 176.21264648 C-136.28397043 175.88290719 -146.38949823 164.50242887 -152.39648438 158.27905273 C-172.44002386 135.88219351 -179.22932865 106.31300254 -178.21289062 76.93286133 C-176.6599238 49.20344408 -164.69502017 23.73127711 -144.73632812 4.54858398 C-104.18292785 -30.85423844 -42.1355572 -34.04388246 0 0 Z " fill="#000000" transform="translate(244.060546875,398.787353515625)"/>
<path d="M0 0 C1.21913086 -0.0309375 1.21913086 -0.0309375 2.46289062 -0.0625 C12.66477137 -0.12742844 20.51933628 3.07975477 27.8125 10.25 C30.03866611 13.1311903 31.99068297 16.09932819 33.8125 19.25 C37.42382816 18.04622395 37.60607058 17.25946891 39.4375 14.0625 C43.3915464 7.90085946 48.38283995 4.60892191 55.125 1.9375 C67.82823115 -0.43089903 81.92927554 -0.9963272 93.53125 5.578125 C102.85090749 12.40828494 107.95167447 21.15710174 110.38044739 32.28059387 C111.34312397 38.8968662 111.0525095 45.64453118 111.0078125 52.31640625 C111.0040763 53.96263964 111.0012322 55.60887527 110.99923706 57.25511169 C110.99164833 61.56066162 110.97204146 65.86607382 110.9498291 70.17156982 C110.92926739 74.57594948 110.92021339 78.98035167 110.91015625 83.38476562 C110.88879046 92.00658026 110.85364786 100.62825706 110.8125 109.25 C104.5425 109.25 98.2725 109.25 91.8125 109.25 C91.79062622 106.29196411 91.79062622 106.29196411 91.76831055 103.27416992 C91.71642808 96.72022382 91.65108153 90.16651709 91.57678509 83.6127882 C91.53227228 79.643654 91.49297563 75.67461793 91.46606445 71.70532227 C91.43983901 67.86662281 91.39930502 64.028305 91.34931374 60.18984413 C91.33277385 58.73366395 91.32118013 57.27741796 91.31488609 55.82115746 C91.26167209 44.62908554 90.66406748 34.46417696 83.8125 25.25 C83.8125 24.59 83.8125 23.93 83.8125 23.25 C82.50172893 22.539999 81.1590266 21.88960014 79.8125 21.25 C78.69875 20.71375 77.585 20.1775 76.4375 19.625 C68.69143433 16.82138668 59.75752025 16.91223298 52.25 20.3125 C45.82867138 24.10213656 43.14228949 28.37302331 41.21557617 35.50683594 C39.41909487 43.00202809 39.33400061 50.42084825 39.30078125 58.078125 C39.28389254 59.56314536 39.26573684 61.0481518 39.24638367 62.53314209 C39.19933153 66.39959353 39.16923505 70.26598851 39.14294434 74.13262939 C39.1129098 78.09504345 39.0664596 82.0572636 39.02148438 86.01953125 C38.93596228 93.76294007 38.86991462 101.50632242 38.8125 109.25 C32.5425 109.25 26.2725 109.25 19.8125 109.25 C19.782771 106.23081421 19.782771 106.23081421 19.75244141 103.15063477 C19.6852971 96.47298523 19.6076622 89.79548664 19.52497292 83.11801243 C19.47519528 79.07260578 19.42886488 75.02722292 19.390625 70.98168945 C19.35353645 67.07175398 19.30711533 63.16202705 19.25443649 59.25227165 C19.23601692 57.76651637 19.22086395 56.2807166 19.20915604 54.79489326 C19.2322716 38.40660249 19.2322716 38.40660249 11.8125 24.25 C4.21868955 18.2728406 -2.69120241 17.62065957 -12.1875 18.25 C-17.35506045 19.36731037 -21.29222396 21.70382889 -25.1875 25.25 C-27.01455785 28.07342475 -27.01455785 28.07342475 -28.4375 31.1875 C-29.18773437 32.71697266 -29.18773437 32.71697266 -29.953125 34.27734375 C-31.99583017 39.19664323 -32.3229218 43.66556767 -32.39282227 48.96801758 C-32.40767166 49.94934662 -32.40767166 49.94934662 -32.42282104 50.95050049 C-32.45423914 53.09847478 -32.47911492 55.24647113 -32.50390625 57.39453125 C-32.52449282 58.88954725 -32.54548973 60.38455765 -32.56687927 61.87956238 C-32.62192415 65.80365448 -32.67141053 69.72779758 -32.71972656 73.65197754 C-32.77007044 77.66060901 -32.82568907 81.66916694 -32.88085938 85.67773438 C-32.98822571 93.53509561 -33.08923015 101.39251973 -33.1875 109.25 C-39.4575 109.25 -45.7275 109.25 -52.1875 109.25 C-52.1875 73.94 -52.1875 38.63 -52.1875 2.25 C-45.9175 2.25 -39.6475 2.25 -33.1875 2.25 C-32.8575 6.21 -32.5275 10.17 -32.1875 14.25 C-30.90875 13.033125 -29.63 11.81625 -28.3125 10.5625 C-19.61855829 2.81623914 -11.37711496 0.0705011 0 0 Z " fill="#000000" transform="translate(581.1875,399.75)"/>
<path d="M0 0 C9.77667678 7.75102971 15.84497759 18.83046167 18 31 C18 37.6 18 44.2 18 51 C-10.71 51 -39.42 51 -69 51 C-67.20298598 60.88357713 -65.49404823 69.83252694 -57.35546875 76.30859375 C-47.63815802 82.97811252 -36.53153031 84.10643681 -25 83 C-16.12819936 81.00223375 -11.13674208 77.44630896 -6.25 69.8125 C-5.09231121 67.89645178 -4.00115538 66.00231075 -3 64 C3.93 64 10.86 64 18 64 C12.3769711 78.38833866 5.75474799 90.50486389 -8.8984375 96.9921875 C-17.20781406 99.69221162 -25.23683686 100.34022678 -33.9375 100.3125 C-34.94490234 100.32861328 -35.95230469 100.34472656 -36.99023438 100.36132812 C-51.21842531 100.37047809 -64.32123301 95.75931813 -74.8125 86 C-80.53249297 79.92508683 -83.88006795 73.68872144 -87 66 C-87.53947266 64.71416016 -87.53947266 64.71416016 -88.08984375 63.40234375 C-93.07575296 48.90414693 -90.94113159 31.60400151 -84.609375 18.015625 C-77.32546295 3.8311647 -66.16195658 -4.93877381 -51 -10 C-33.45159894 -14.80272029 -14.5639838 -10.19060361 0 0 Z M-62.7578125 17.953125 C-66.78610158 23.05173244 -69 27.37154947 -69 34 C-47.22 34 -25.44 34 -3 34 C-4.30973871 24.83182906 -7.76352094 18.01713328 -15.13671875 12.24609375 C-30.66400529 1.86201743 -50.1341568 3.92684089 -62.7578125 17.953125 Z " fill="#000000" transform="translate(794,411)"/>
<path d="M0 0 C1.00442139 0.00757324 2.00884277 0.01514648 3.04370117 0.02294922 C17.5220469 0.34336491 29.09716802 5.09359562 39.8125 14.9375 C51.2984078 26.9651959 55.12747229 42.20460374 54.97680664 58.36230469 C54.53348609 73.75733933 49.74188072 87.04594406 38.96875 98.25 C25.40018384 110.91399509 8.90038433 112.05654898 -8.77197266 111.57373047 C-22.65214742 110.84730602 -33.95867362 104.36025066 -43.375 94.4375 C-53.20225005 82.80639525 -57.09970834 68.04518146 -56.62109375 52.8984375 C-54.96546295 36.34212948 -49.2798571 22.3427353 -36.375 11.4375 C-25.37634607 3.29328888 -13.62850925 -0.1450944 0 0 Z M-26.14453125 27.80859375 C-33.28714351 36.22711923 -36.89488496 46.74952451 -36.625 57.73046875 C-35.583684 69.00596857 -31.44016755 79.37233245 -23.375 87.4375 C-14.26466924 94.01017807 -5.60060743 96.64735401 5.625 95.4375 C16.74858886 92.87523884 24.94399492 86.67835783 31.1171875 77.16015625 C36.73696108 67.01253401 38.5066929 56.37136863 35.8125 45.01171875 C31.98040754 33.68841776 24.26380904 24.93328966 13.625 19.4375 C-0.54321198 13.74666693 -15.43637194 17.47496465 -26.14453125 27.80859375 Z " fill="#000000" transform="translate(461.375,399.5625)"/>
<path d="M0 0 C10.87472435 7.75966609 17.05675677 16.53426116 20.27734375 29.625 C20.27734375 30.945 20.27734375 32.265 20.27734375 33.625 C13.67734375 33.625 7.07734375 33.625 0.27734375 33.625 C-0.71265625 30.6240625 -0.71265625 30.6240625 -1.72265625 27.5625 C-5.0298663 19.06352445 -9.36623587 14.83732839 -17.66015625 11.1875 C-27.33386531 8.07520642 -39.34669078 7.86911785 -48.5859375 12.37109375 C-57.29001872 17.47897322 -63.07501117 23.49097531 -66.59765625 33.125 C-69.53420979 44.41402619 -68.85128752 57.12956573 -63.72265625 67.625 C-58.9930112 75.6531295 -52.51497526 81.53140628 -43.72265625 84.625 C-32.93666131 87.21726433 -22.12547183 86.12842739 -12.41015625 80.8125 C-5.50774703 75.19425994 -2.52577352 68.58501289 1.27734375 60.625 C7.54734375 60.625 13.81734375 60.625 20.27734375 60.625 C18.75871732 73.11148401 14.07017087 84.22920098 4.6484375 92.79296875 C-9.69405471 103.87472962 -28.52338599 104.12960237 -45.85351562 102.4140625 C-58.45954765 100.66064182 -69.27000588 93.97195808 -77.72265625 84.625 C-88.93953566 69.66916078 -90.78740931 51.31716847 -88.25 33.26171875 C-87.60213101 30.5810153 -86.78721405 28.16788712 -85.72265625 25.625 C-85.30886719 24.63371094 -84.89507812 23.64242187 -84.46875 22.62109375 C-78.27998549 9.14746201 -68.6841198 0.19118199 -54.91015625 -5.25 C-37.16090536 -11.77895709 -15.93046923 -10.3276948 0 0 Z " fill="#000000" transform="translate(373.72265625,408.375)"/>
<path d="M0 0 C5.94 0 11.88 0 18 0 C18 9.24 18 18.48 18 28 C26.58 28 35.16 28 44 28 C44 33.61 44 39.22 44 45 C35.42 45 26.84 45 18 45 C18.33 68.43 18.66 91.86 19 116 C29.23 116 39.46 116 50 116 C50 121.61 50 127.22 50 133 C46.18706166 133.08151175 42.37589477 133.14075085 38.5625 133.1875 C37.49322266 133.21263672 36.42394531 133.23777344 35.32226562 133.26367188 C24.12883986 133.36636385 16.11198097 130.91375588 8 123 C1.55295361 115.07894941 -0.31260834 107.9769719 -0.37109375 97.921875 C-0.38463646 96.4719516 -0.38463646 96.4719516 -0.39845276 94.99273682 C-0.41292209 92.95205769 -0.42183372 90.91133253 -0.42553711 88.87060547 C-0.43740951 85.77360382 -0.48660826 82.67861165 -0.53710938 79.58203125 C-0.54657781 77.59115547 -0.55381083 75.60026755 -0.55859375 73.609375 C-0.57812607 72.69549011 -0.59765839 71.78160522 -0.61778259 70.84002686 C-0.54368531 60.10150742 4.10622739 54.04273471 11 46 C-0.88 45.67 -12.76 45.34 -25 45 C-25 39.39 -25 33.78 -25 28 C-16.75 28 -8.5 28 0 28 C0 18.76 0 9.52 0 0 Z " fill="#000000" transform="translate(835,375)"/>
</svg>
