<?xml version="1.0" encoding="UTF-8"?>
<svg version="1.1" xmlns="http://www.w3.org/2000/svg" width="1024" height="1024">
<path d="M0 0 C1.31610764 -0.00701431 2.63221527 -0.01402863 3.98820496 -0.02125549 C8.21479777 -0.04066816 12.44133585 -0.04568947 16.66796875 -0.046875 C17.74706512 -0.04753778 17.74706512 -0.04753778 18.84796143 -0.04821396 C40.00107139 -0.05503236 60.87298701 0.19304189 81.85546875 3.203125 C83.77383545 3.46053467 83.77383545 3.46053467 85.73095703 3.72314453 C168.87528728 14.90510123 249.22259977 46.57309127 316.69873047 96.60498047 C318.80861706 98.16840786 320.92703809 99.71963404 323.046875 101.26953125 C334.73245562 109.86461818 345.65817035 119.20704046 356.37890625 128.97265625 C357.71413888 130.17520803 359.05536996 131.371876 360.4284668 132.53100586 C366.96796054 138.09370346 372.98126971 144.1779694 379.03735352 150.25463867 C380.9137635 152.13640774 382.79545844 154.01277238 384.67773438 155.88867188 C390.61624178 161.82354076 396.45076855 167.77080302 401.85546875 174.203125 C402.83947084 175.33349154 403.82512486 176.46242237 404.8125 177.58984375 C411.45618489 185.24743813 417.81682506 193.05787553 423.85546875 201.203125 C424.34096191 201.85732422 424.82645508 202.51152344 425.32666016 203.18554688 C445.46373423 230.44140368 462.65485418 258.9232767 477.85546875 289.203125 C478.32082031 290.12448242 478.78617188 291.04583984 479.265625 291.99511719 C507.43705932 348.10672779 523.22206809 410.84648854 528.85546875 473.203125 C528.93876245 474.03148613 529.02205616 474.85984726 529.10787392 475.71331024 C530.2331773 488.64639412 529.98753782 501.61710873 529.96899414 514.58740234 C529.96815287 517.35790535 529.96882712 520.12840751 529.96943665 522.89891052 C529.96995835 528.84041167 529.96684868 534.78190175 529.96119881 540.72340012 C529.95303563 549.31357102 529.95046367 557.90373662 529.94921082 566.49391098 C529.94702783 580.43442024 529.94038826 594.37492362 529.9309082 608.31542969 C529.92171453 621.84895804 529.91464328 635.38248478 529.91040039 648.91601562 C529.91013767 649.75168325 529.90987494 650.58735088 529.90960426 651.44834177 C529.90829912 655.6410769 529.90703544 659.83381204 529.90579236 664.02654719 C529.89544323 698.75207836 529.87701763 733.47759862 529.85546875 768.203125 C498.50546875 768.203125 467.15546875 768.203125 434.85546875 768.203125 C434.83564941 760.12465088 434.81583008 752.04617676 434.79541016 743.72290039 C434.73040827 717.78469484 434.65586347 691.84652497 434.57541714 665.90836299 C434.56290039 661.86981709 434.55046728 657.83127093 434.53808594 653.79272461 C434.53561994 652.98882577 434.53315395 652.18492692 434.53061323 651.35666751 C434.49104243 638.39201587 434.45822627 625.42735568 434.42796893 612.46267933 C434.3966989 599.1295169 434.358025 585.79639027 434.31267869 572.46326822 C434.28499369 564.25623888 434.26287565 556.04923529 434.24820624 547.8421722 C434.23754821 542.19096731 434.2196077 536.53981273 434.19630171 530.88864601 C434.1831205 527.64307921 434.17389323 524.39759318 434.17125511 521.15199852 C434.15026345 499.22283955 433.02681134 477.51003422 429.60546875 455.828125 C429.44590195 454.80159821 429.44590195 454.80159821 429.28311157 453.7543335 C414.25709931 357.55532464 365.3237817 262.23796111 289.85546875 199.203125 C288.53675781 198.05070312 288.53675781 198.05070312 287.19140625 196.875 C220.84835433 139.16518888 137.76493106 106.92633345 50.85546875 98.203125 C50.00275391 98.11691895 49.15003906 98.03071289 48.27148438 97.94189453 C43.46836381 97.48710314 38.67691325 97.28410293 33.85546875 97.203125 C32.19741211 97.1724292 32.19741211 97.1724292 30.50585938 97.14111328 C-54.71178254 95.81301763 -137.84937804 117.90737119 -209.14453125 165.203125 C-210.2113916 165.91082031 -210.2113916 165.91082031 -211.29980469 166.6328125 C-220.53345941 172.79709652 -229.45198312 179.29856542 -238.14453125 186.203125 C-239.08941406 186.95335937 -240.03429687 187.70359375 -241.0078125 188.4765625 C-246.63379478 193.01236151 -252.03570435 197.744893 -257.34375 202.6484375 C-259.49568935 204.61129431 -261.67131933 206.51965862 -263.87890625 208.41796875 C-268.69518496 212.61994646 -273.19986244 217.11187357 -277.70703125 221.640625 C-278.51849609 222.44822266 -279.32996094 223.25582031 -280.16601562 224.08789062 C-285.03375627 228.9634888 -289.67508732 233.96141076 -294.14453125 239.203125 C-295.03346907 240.22429369 -295.92276506 241.24515075 -296.8125 242.265625 C-316.11472012 264.76991885 -333.60322424 289.80066795 -347.14453125 316.203125 C-345.95923828 315.25566406 -345.95923828 315.25566406 -344.75 314.2890625 C-323.99794821 297.7883753 -302.64908519 282.94625069 -279.28710938 270.36474609 C-277.2547223 269.26286623 -275.2377526 268.13701668 -273.22265625 267.00390625 C-233.34861198 244.85774066 -188.00738419 232.00730307 -143.14453125 225.203125 C-141.57880371 224.9553833 -141.57880371 224.9553833 -139.98144531 224.70263672 C-104.47573847 219.31268091 -65.60630499 219.67486369 -30.14453125 225.203125 C-28.98066895 225.37473145 -27.81680664 225.54633789 -26.61767578 225.72314453 C47.46394439 236.79235711 116.5076248 268.09441618 173.85546875 316.203125 C175.37346069 317.46660767 175.37346069 317.46660767 176.92211914 318.75561523 C185.27104097 325.76500829 193.12691506 333.16118857 200.80737305 340.89428711 C202.67730016 342.77501028 204.55779513 344.64469319 206.43945312 346.51367188 C213.3721264 353.4387766 219.78868236 360.4988905 225.85546875 368.203125 C226.71828672 369.23115394 227.58669329 370.25456814 228.46484375 371.26953125 C290.73954138 443.88546517 322.28952665 541.55507731 322.15965056 646.15059853 C322.14046168 650.46525128 322.13910106 654.77991565 322.13557434 659.09460449 C322.12637441 667.20739722 322.10193033 675.32006374 322.07152587 683.43280172 C322.03121268 694.43628967 322.01542921 705.43981393 321.99801922 716.44335747 C321.97009524 733.69670722 321.91024768 750.94979111 321.85546875 768.203125 C290.50546875 768.203125 259.15546875 768.203125 226.85546875 768.203125 C226.80648437 757.87 226.7575 747.536875 226.70703125 736.890625 C226.67159948 730.30077341 226.63569003 723.71092999 226.59765625 717.12109375 C226.53752244 706.68703166 226.47920588 696.25298469 226.43359375 685.81884766 C226.40034741 678.21554794 226.36034459 670.61231674 226.31267869 663.00909328 C226.28773277 658.99421511 226.26586337 654.97938048 226.25212479 650.96444702 C226.17027935 627.94469181 225.59488 605.06979501 221.66796875 582.328125 C221.34759644 580.45241821 221.34759644 580.45241821 221.02075195 578.53881836 C211.82996323 526.98764857 189.70489018 477.97009929 156.85546875 437.203125 C156.13230469 436.28789063 155.40914062 435.37265625 154.6640625 434.4296875 C142.79324125 419.6070878 129.48645054 405.15494848 114.5703125 393.36328125 C111.76477856 391.13096432 109.06812439 388.79707016 106.35546875 386.453125 C56.48236521 344.85986225 -11.43472729 320.52095106 -76.14453125 319.203125 C-76.91539062 319.18266113 -77.68625 319.16219727 -78.48046875 319.14111328 C-111.14147448 318.36193708 -143.84401581 322.86396334 -175.14453125 332.203125 C-176.01835449 332.46319336 -176.89217773 332.72326172 -177.79248047 332.99121094 C-217.99937082 345.19140757 -257.90043698 366.14847718 -288.73828125 394.97265625 C-290.73777962 396.82608737 -292.7702204 398.60876963 -294.8359375 400.38671875 C-306.53915669 410.59738902 -317.75898435 421.81352421 -327.14453125 434.203125 C-328.16536334 435.50883252 -329.18761939 436.81342743 -330.2109375 438.1171875 C-340.05137259 450.72366843 -348.79212997 463.65352509 -356.76953125 477.515625 C-357.30328369 478.44213867 -357.83703613 479.36865234 -358.38696289 480.32324219 C-359.12160767 481.6192334 -359.12160767 481.6192334 -359.87109375 482.94140625 C-360.31018066 483.71524658 -360.74926758 484.48908691 -361.20166016 485.28637695 C-362.29166395 487.1462119 -362.29166395 487.1462119 -362.14453125 489.203125 C-361.27054688 488.59726562 -360.3965625 487.99140625 -359.49609375 487.3671875 C-294.90980266 443.13244519 -214.03094877 427.25829386 -137.18359375 441.01953125 C-110.77848239 446.06143537 -85.30193586 454.39833266 -61.14453125 466.203125 C-60.31711426 466.60192871 -59.48969727 467.00073242 -58.63720703 467.41162109 C-38.82311246 477.04752814 -20.18067227 489.228885 -3.14453125 503.203125 C-1.62085938 504.42322266 -1.62085938 504.42322266 -0.06640625 505.66796875 C7.95862694 512.22820111 15.32516476 519.46318222 22.66796875 526.765625 C23.1560199 527.24840912 23.64407104 527.73119324 24.14691162 528.22860718 C30.84363086 534.86938186 37.03763911 541.77508644 42.85546875 549.203125 C43.67857544 550.25318726 43.67857544 550.25318726 44.51831055 551.32446289 C56.02159113 566.19520112 66.05978147 581.5857695 74.85546875 598.203125 C75.21382812 598.87988281 75.5721875 599.55664062 75.94140625 600.25390625 C96.64418281 639.71370969 110.17589292 685.3355734 109.953125 730.1171875 C109.95211792 731.09002686 109.95111084 732.06286621 109.95007324 733.06518555 C109.94489402 736.65284425 109.93093336 740.24048598 109.91796875 743.828125 C109.89734375 751.871875 109.87671875 759.915625 109.85546875 768.203125 C78.50546875 768.203125 47.15546875 768.203125 14.85546875 768.203125 C14.52546875 755.003125 14.19546875 741.803125 13.85546875 728.203125 C13.08284647 720.39964002 12.29387594 712.86926463 10.85546875 705.203125 C10.69062988 704.30609863 10.52579102 703.40907227 10.35595703 702.48486328 C2.38130641 660.51651234 -18.40380719 623.51536974 -48.14453125 593.203125 C-48.7372583 592.59718506 -49.32998535 591.99124512 -49.94067383 591.36694336 C-86.87711233 553.97098459 -139.82487118 534.31622178 -191.83203125 533.890625 C-248.42361529 534.06048261 -299.76161036 557.11085054 -339.83203125 596.578125 C-386.83330695 643.93921233 -397.53309394 703.74563247 -399.14453125 768.203125 C-430.49453125 768.203125 -461.84453125 768.203125 -494.14453125 768.203125 C-494.21091091 732.96709839 -494.2662088 697.73113343 -494.29772724 662.49506292 C-494.30147848 658.3166141 -494.30536153 654.13816542 -494.30932617 649.9597168 C-494.3101131 649.12801029 -494.31090003 648.29630378 -494.31171081 647.43939405 C-494.32469525 634.0468577 -494.34830978 620.65436075 -494.37598964 607.26184762 C-494.40423927 593.47666946 -494.42074836 579.69151165 -494.42679673 565.90630573 C-494.43051121 558.18159028 -494.43938068 550.45695713 -494.46172142 542.73227119 C-494.63860718 479.64952119 -494.63860718 479.64952119 -491.14453125 454.203125 C-491.05318838 453.5349158 -490.96184551 452.8667066 -490.86773467 452.17824864 C-481.53565411 384.21670092 -460.74810027 319.9951751 -427.14453125 260.203125 C-426.74186035 259.4797998 -426.33918945 258.75647461 -425.92431641 258.01123047 C-411.9888347 233.08320103 -395.3764809 208.65954218 -376.64453125 187.1015625 C-374.30656834 184.39098675 -372.06389263 181.62615709 -369.83203125 178.828125 C-359.77873195 166.55435786 -348.46189768 155.42443559 -337.26953125 144.203125 C-336.68190002 143.61281494 -336.0942688 143.02250488 -335.48883057 142.41430664 C-329.21964141 136.12347169 -322.94886834 129.92149769 -316.14453125 124.203125 C-315.08798894 123.29100444 -314.03197518 122.37827117 -312.9765625 121.46484375 C-305.54326761 115.12779157 -297.95776823 109.06418509 -290.14453125 103.203125 C-289.58604492 102.78095703 -289.02755859 102.35878906 -288.45214844 101.92382812 C-216.96154107 47.99160589 -131.775623 13.22795447 -27.14453125 1.203125 C-26.17746246 1.11579605 -25.21039368 1.0284671 -24.21401978 0.93849182 C-16.13294771 0.26065558 -8.10739859 0.02894422 0 0 Z " fill="#000000" transform="translate(494.14453125,133.796875)"/>
</svg>
